<svg version="1.1" xmlns="http://www.w3.org/2000/svg" xmlns:xlink="http://www.w3.org/1999/xlink" width="702.63211" height="647.53557" viewBox="0,0,702.63211,647.53557"><g transform="translate(111.31606,143.76779)"><g data-paper-data="{&quot;isPaintingLayer&quot;:true}" fill="#ffffff" fill-rule="nonzero" stroke="none" stroke-linecap="butt" stroke-linejoin="miter" stroke-miterlimit="10" stroke-dasharray="" stroke-dashoffset="0" style="mix-blend-mode: normal"><path d="M199.38594,-143.76779h73.86723l-33.30428,323.39824z" stroke-width="0"/><path d="M-18.64953,-21.11793l52.23201,-52.23202l205.1274,252.22677z" stroke-width="0"/><path d="M591.31606,139.27567v73.86723l-348.81253,-33.30429z" stroke-width="0"/><path d="M459.55819,-96.6926l52.23202,52.23202l-270.19739,223.09802z" stroke-width="0"/><path d="M280.50296,503.76779h-73.86723l33.30428,-323.39823z" stroke-width="0"/><path d="M499.28252,381.50042l-52.23201,52.23202l-205.1274,-252.22677z" stroke-width="0"/><path d="M-111.31605,219.6132v-73.86723l348.81254,33.30429z" stroke-width="0"/><path d="M19.74147,456.63065l-52.23202,-52.23202l270.19739,-223.09802z" stroke-width="0"/><path d="M160.21096,115.18192c0,-1.38071 1.11929,-2.5 2.5,-2.5c1.38071,0 2.5,1.11929 2.5,2.5c0,1.38071 -1.11929,2.5 -2.5,2.5c-1.38071,0 -2.5,-1.11929 -2.5,-2.5z" stroke-width="0.5"/><path d="M167.21096,115.18192c0,-1.38071 1.11929,-2.5 2.5,-2.5c1.38071,0 2.5,1.11929 2.5,2.5c0,1.38071 -1.11929,2.5 -2.5,2.5c-1.38071,0 -2.5,-1.11929 -2.5,-2.5z" stroke-width="0.5"/></g></g></svg>